<?xml version="1.0" standalone="no"?>
<!DOCTYPE svg PUBLIC "-//W3C//DTD SVG 20010904//EN"
 "http://www.w3.org/TR/2001/REC-SVG-20010904/DTD/svg10.dtd">
<svg version="1.0" xmlns="http://www.w3.org/2000/svg"
 width="630.000000pt" height="630.000000pt" viewBox="0 0 630.000000 630.000000"
 preserveAspectRatio="xMidYMid meet">
<metadata>
Created by potrace 1.11, written by Peter Selinger 2001-2013
</metadata>
<g transform="translate(0.000000,630.000000) scale(0.100000,-0.100000)"
fill="#000000" stroke="none">
<path d="M2530 4602 l0 -1328 -77 -34 c-339 -149 -591 -387 -753 -715 -160
-322 -199 -660 -115 -1010 138 -581 612 -1024 1203 -1126 581 -99 1168 155
1494 646 257 387 322 861 177 1300 -74 223 -188 405 -363 580 -139 139 -254
221 -421 302 l-115 55 2 816 3 817 473 3 472 2 0 95 0 95 -472 2 -473 3 -3
102 -3 103 238 2 238 3 3 98 3 97 -241 0 -241 0 3 113 3 112 473 3 472 2 0 95
0 95 -570 0 -570 0 0 -1403 0 -1402 68 -19 c98 -28 284 -125 383 -200 157
-119 303 -293 388 -464 45 -89 97 -251 116 -356 19 -114 19 -328 0 -442 -33
-189 -117 -386 -233 -547 -71 -99 -225 -247 -327 -316 -416 -278 -964 -294
-1386 -40 -327 196 -542 499 -620 872 -30 143 -30 361 0 504 97 467 435 846
879 988 l82 26 0 1400 0 1399 -95 0 -95 0 0 -1328z"/>
<path d="M2950 4550 l0 -1380 95 0 95 0 0 1380 0 1380 -95 0 -95 0 0 -1380z"/>
<path d="M2968 2953 l-28 -4 0 -535 0 -534 100 0 100 0 0 534 0 533 -46 7
c-48 6 -79 6 -126 -1z"/>
<path d="M2612 2866 c-299 -124 -542 -406 -629 -733 -23 -87 -26 -117 -26
-268 -1 -153 2 -180 26 -270 32 -119 117 -295 186 -386 187 -246 477 -406 777
-428 332 -24 628 83 858 312 144 141 239 309 293 516 33 124 37 349 9 476 -73
331 -283 603 -580 749 -168 84 -156 86 -156 -33 l0 -101 68 -34 c274 -138 456
-399 492 -706 45 -388 -188 -777 -553 -925 -322 -131 -691 -63 -949 174 -116
106 -215 273 -260 436 -30 113 -30 325 1 440 64 244 237 459 458 573 l93 47 0
98 c0 71 -3 97 -12 97 -7 0 -50 -16 -96 -34z"/>
<path d="M2670 2430 c-198 -141 -302 -335 -303 -565 -2 -514 538 -833 998
-592 36 19 94 66 146 117 137 135 199 282 199 471 0 179 -58 331 -177 458 -57
63 -144 131 -165 131 -4 0 -8 -51 -8 -113 l0 -112 41 -50 c207 -251 128 -608
-166 -746 -262 -124 -586 32 -660 316 -38 148 -2 303 101 430 l45 54 -3 116
-3 116 -45 -31z"/>
</g>
</svg>
